<svg version="1.1" xmlns="http://www.w3.org/2000/svg" viewBox="0 0 1043.2423712601792 114.0870361328125" width="1043.2423712601792" height="114.0870361328125">
  <!-- svg-source:excalidraw -->
  
  <defs>
    <style class="style-fonts">
      @font-face {
        font-family: "Virgil";
        src: url("https://excalidraw.com/Virgil.woff2");
      }
      @font-face {
        font-family: "Cascadia";
        src: url("https://excalidraw.com/Cascadia.woff2");
      }
    </style>
    
  </defs>
  <rect x="0" y="0" width="1043.2423712601792" height="114.0870361328125" fill="#ffffff"></rect><g stroke-linecap="round" transform="translate(95.91358344609847 10) rotate(0 82.76437377929688 44.54351806640625)"><path d="M2.81 9.07 C2.81 9.07, 2.81 9.07, 2.81 9.07 M2.81 9.07 C2.81 9.07, 2.81 9.07, 2.81 9.07 M0.58 17.73 C1.61 13.97, 6.67 11.26, 11.08 5.66 M0.58 17.73 C4.79 13.29, 9.04 9.03, 11.08 5.66 M0.98 23.37 C5.96 15.59, 12 9.42, 18.03 3.75 M0.98 23.37 C5.15 18.11, 9.16 14.22, 18.03 3.75 M0.71 29.77 C8.86 21.7, 15.16 11.94, 24.99 1.85 M0.71 29.77 C7.68 21.86, 14.06 14.12, 24.99 1.85 M1.11 35.41 C10.25 21.87, 20.71 9.63, 29.98 2.21 M1.11 35.41 C10.54 23.73, 21.38 11.17, 29.98 2.21 M0.85 41.81 C9.26 30.84, 18.46 20.96, 35.62 1.81 M0.85 41.81 C12.53 28.28, 25.68 14.83, 35.62 1.81 M0.59 48.21 C15.08 29.73, 32.2 12.4, 40.61 2.17 M0.59 48.21 C13.5 32.3, 25.48 19.16, 40.61 2.17 M0.98 53.85 C15.46 37.86, 30.16 18.48, 46.25 1.78 M0.98 53.85 C17.11 35.42, 32.88 17.06, 46.25 1.78 M0.72 60.25 C14.27 46.19, 25.74 33.75, 51.24 2.14 M0.72 60.25 C12.24 48.44, 23.58 36.37, 51.24 2.14 M1.11 65.89 C24.07 42.05, 44.74 15.45, 56.22 2.5 M1.11 65.89 C18.68 47.63, 35.01 28.97, 56.22 2.5 M0.85 72.29 C24.39 47.33, 44.45 20.74, 61.87 2.1 M0.85 72.29 C23.96 45.01, 47.92 19.25, 61.87 2.1 M2.56 76.43 C27.91 46.09, 53.56 17.42, 66.85 2.46 M2.56 76.43 C25.86 48.62, 50.68 22.1, 66.85 2.46 M3.61 81.31 C27.95 56.11, 50.38 29.36, 72.5 2.07 M3.61 81.31 C31.22 49.25, 57.46 19.65, 72.5 2.07 M6.63 83.94 C20.16 65.72, 38.06 50.8, 77.48 2.43 M6.63 83.94 C33.39 51.51, 63.35 19.85, 77.48 2.43 M9.65 86.56 C36.04 54.77, 63.59 23.83, 83.13 2.03 M9.65 86.56 C26.37 65.7, 45.11 45.85, 83.13 2.03 M13.98 87.68 C40.32 58.63, 63.69 30.89, 88.11 2.4 M13.98 87.68 C32.16 68.28, 47.68 47.94, 88.11 2.4 M18.31 88.79 C33.28 70.06, 51.48 52.18, 93.76 2 M18.31 88.79 C39.39 61.84, 62.07 35.2, 93.76 2 M22.64 89.91 C51.35 56.14, 84.22 19.12, 98.74 2.36 M22.64 89.91 C45.43 61.99, 70.22 34.43, 98.74 2.36 M28.28 89.51 C47.21 68.12, 63.02 47.64, 104.39 1.97 M28.28 89.51 C45.83 70.8, 62.41 51.91, 104.39 1.97 M33.27 89.87 C55.05 67.4, 73.34 43.2, 109.37 2.33 M33.27 89.87 C59.47 59.65, 84.43 30.22, 109.37 2.33 M38.91 89.48 C63.41 60.43, 86.4 33.34, 115.02 1.93 M38.91 89.48 C54.86 71.56, 71.3 53.72, 115.02 1.93 M43.9 89.84 C70.14 59.69, 95.85 33, 120 2.29 M43.9 89.84 C60.74 73.52, 76.28 54.62, 120 2.29 M49.54 89.44 C65.69 68.84, 86.64 45.69, 125.65 1.9 M49.54 89.44 C76.58 60.34, 103.27 29.26, 125.65 1.9 M54.53 89.8 C72.93 69.72, 90.77 47.51, 130.63 2.26 M54.53 89.8 C71.67 71.48, 89.16 52.46, 130.63 2.26 M60.17 89.41 C77.49 71.02, 96.81 50.92, 136.28 1.86 M60.17 89.41 C83.42 62.26, 105.93 35.66, 136.28 1.86 M65.16 89.77 C89.05 62.61, 114.29 34.52, 141.26 2.22 M65.16 89.77 C89.02 62.83, 113.75 33.36, 141.26 2.22 M70.8 89.37 C88.3 70.64, 103.69 53.37, 146.25 2.58 M70.8 89.37 C98.49 56.11, 128.42 23.83, 146.25 2.58 M75.79 89.73 C104.86 59.43, 131.36 27.68, 150.58 3.7 M75.79 89.73 C95.27 67.21, 116.33 43.52, 150.58 3.7 M81.43 89.34 C110.55 55.89, 137.9 25.75, 154.91 4.81 M81.43 89.34 C100.77 65.79, 121.81 42.39, 154.91 4.81 M86.42 89.7 C108.01 64.84, 131.58 39.86, 159.9 5.17 M86.42 89.7 C104.16 70.21, 121.09 51.52, 159.9 5.17 M92.06 89.31 C109.69 70.77, 122.26 53.45, 162.26 8.55 M92.06 89.31 C113.93 63.21, 138.35 36.4, 162.26 8.55 M97.05 89.67 C116.23 68.66, 134.04 46.66, 165.28 11.18 M97.05 89.67 C124 58.12, 151.39 26.27, 165.28 11.18 M102.69 89.27 C123.48 64.63, 141.64 41.69, 165.02 17.57 M102.69 89.27 C121.51 67.28, 138.38 46.39, 165.02 17.57 M107.68 89.63 C127.95 63.9, 148.76 42.19, 165.41 23.22 M107.68 89.63 C129.04 63.46, 151.57 38.04, 165.41 23.22 M112.67 89.99 C129.68 69.7, 145.23 51.87, 165.15 29.61 M112.67 89.99 C130.18 69.47, 148.35 49.7, 165.15 29.61 M118.31 89.6 C132.14 74.31, 147.74 58.27, 165.55 35.26 M118.31 89.6 C129.87 77.81, 139.38 65.47, 165.55 35.26 M123.3 89.96 C138.39 74.51, 151.36 59.94, 165.29 41.66 M123.3 89.96 C132.87 77.12, 144.15 65.88, 165.29 41.66 M128.94 89.56 C140.39 74.96, 152.8 62.87, 165.68 47.3 M128.94 89.56 C140.61 74.75, 155.1 60.32, 165.68 47.3 M133.93 89.92 C144.49 74.94, 158.07 63.67, 165.42 53.7 M133.93 89.92 C142.22 82.11, 149.13 71.97, 165.42 53.7 M139.57 89.53 C147.58 83.11, 155.42 74.31, 165.81 59.34 M139.57 89.53 C146.01 82.28, 151.02 76, 165.81 59.34 M144.56 89.89 C151.31 81.08, 156.74 74.56, 165.55 65.74 M144.56 89.89 C151.17 81.9, 158.22 73.19, 165.55 65.74 M150.86 88.74 C157.05 81.77, 164.7 74.2, 167.92 69.12 M150.86 88.74 C156.18 80.4, 163.75 73.2, 167.92 69.12" stroke="#b2f2bb" stroke-width="0.5" fill="none"></path><path d="M22.27 0 M22.27 0 C70.03 -1.16, 116.63 -0.05, 143.26 0 M22.27 0 C66.09 1.26, 111.45 -0.02, 143.26 0 M143.26 0 C158.54 1.5, 165.47 8.77, 165.53 22.27 M143.26 0 C159.32 0.93, 164.9 6.41, 165.53 22.27 M165.53 22.27 C167.27 37.31, 164.45 56.03, 165.53 66.82 M165.53 22.27 C164.41 34.35, 165.82 44.28, 165.53 66.82 M165.53 66.82 C164.05 80.48, 156.26 90.59, 143.26 89.09 M165.53 66.82 C166.78 80.03, 155.94 87.97, 143.26 89.09 M143.26 89.09 C116.4 90.23, 85.15 87.06, 22.27 89.09 M143.26 89.09 C111.01 90.38, 78.42 89.92, 22.27 89.09 M22.27 89.09 C7.68 88.53, -0.6 80.56, 0 66.82 M22.27 89.09 C6.93 90.37, 1.68 79.44, 0 66.82 M0 66.82 C-2.05 51.57, 1.06 36.67, 0 22.27 M0 66.82 C-0.22 51.13, -0.81 33.71, 0 22.27 M0 22.27 C-1.2 5.56, 7.95 -1.5, 22.27 0 M0 22.27 C-0.79 8.94, 7.94 -1.35, 22.27 0" stroke="#000000" stroke-width="1" fill="none"></path></g><g transform="translate(120.06801765020003 42.04351806640625) rotate(0 58.60993957519531 12.5)"><text x="58.60993957519531" y="0" font-family="Virgil, Segoe UI Emoji" font-size="20px" fill="#1e1e1e" text-anchor="middle" style="white-space: pre;" direction="ltr" dominant-baseline="text-before-edge">Fetch Data</text></g><g stroke-linecap="round" transform="translate(336.91358344609847 12) rotate(0 82.76437377929688 44.54351806640625)"><path d="M2.81 9.07 C2.81 9.07, 2.81 9.07, 2.81 9.07 M2.81 9.07 C2.81 9.07, 2.81 9.07, 2.81 9.07 M0.58 17.73 C2.68 15.12, 6.02 9.42, 11.08 5.66 M0.58 17.73 C4.11 14.42, 6.32 10.42, 11.08 5.66 M0.98 23.37 C6.03 17.04, 13.3 10.98, 18.03 3.75 M0.98 23.37 C6.12 16.99, 11.93 10.38, 18.03 3.75 M0.71 29.77 C8.32 20.7, 21.04 10.17, 24.99 1.85 M0.71 29.77 C8.79 20.27, 16.09 13.06, 24.99 1.85 M1.11 35.41 C6.74 27.97, 17.35 19.77, 29.98 2.21 M1.11 35.41 C10.79 25.38, 19.7 15.02, 29.98 2.21 M0.85 41.81 C9.61 30.56, 21.88 20.52, 35.62 1.81 M0.85 41.81 C12.79 27.29, 26.69 13.81, 35.62 1.81 M0.59 48.21 C14.43 31.41, 27.78 13.69, 40.61 2.17 M0.59 48.21 C10.63 37.08, 20.25 26.63, 40.61 2.17 M0.98 53.85 C11.19 40.1, 25.62 27.21, 46.25 1.78 M0.98 53.85 C14.81 40.16, 26.77 25.4, 46.25 1.78 M0.72 60.25 C16.61 39.95, 31.41 24.52, 51.24 2.14 M0.72 60.25 C13.14 47.06, 25.68 32.54, 51.24 2.14 M1.11 65.89 C19.73 43.43, 39.28 24.24, 56.22 2.5 M1.11 65.89 C17.94 46.42, 34.78 26.09, 56.22 2.5 M0.85 72.29 C21.51 48.46, 39.49 28.25, 61.87 2.1 M0.85 72.29 C13.94 57.35, 27.14 43.23, 61.87 2.1 M2.56 76.43 C19.58 57.35, 37.51 37.04, 66.85 2.46 M2.56 76.43 C25.33 52.18, 46.65 25.46, 66.85 2.46 M3.61 81.31 C30.24 48.89, 57.07 21.5, 72.5 2.07 M3.61 81.31 C23.85 58.37, 43.92 35.02, 72.5 2.07 M6.63 83.94 C27.92 59.1, 49.2 34.32, 77.48 2.43 M6.63 83.94 C22 65.31, 38.23 45.44, 77.48 2.43 M9.65 86.56 C27.63 67.8, 42.42 45.4, 83.13 2.03 M9.65 86.56 C24.32 68.7, 39.28 50.74, 83.13 2.03 M13.98 87.68 C40.54 56.58, 64.01 27.9, 88.11 2.4 M13.98 87.68 C35.63 61.62, 58.13 35.18, 88.11 2.4 M18.31 88.79 C39.05 65.06, 58.84 42.53, 93.76 2 M18.31 88.79 C44.43 58.39, 71.5 28.74, 93.76 2 M22.64 89.91 C53.07 59.66, 80.62 25.64, 98.74 2.36 M22.64 89.91 C44.68 65.25, 65.99 40, 98.74 2.36 M28.28 89.51 C56.54 54.81, 84.18 23.41, 104.39 1.97 M28.28 89.51 C50.63 64.64, 71.45 39.93, 104.39 1.97 M33.27 89.87 C54.38 64.79, 73.08 45.34, 109.37 2.33 M33.27 89.87 C57.1 61.91, 80.02 35.26, 109.37 2.33 M38.91 89.48 C63.14 63.54, 88.81 34.84, 115.02 1.93 M38.91 89.48 C57.37 68.8, 75.83 48.58, 115.02 1.93 M43.9 89.84 C73.4 57.73, 101.23 22.68, 120 2.29 M43.9 89.84 C71.44 57.79, 98.45 25.31, 120 2.29 M49.54 89.44 C72.56 60.44, 98.55 32.14, 125.65 1.9 M49.54 89.44 C64.04 70.28, 80.83 52.47, 125.65 1.9 M54.53 89.8 C81.1 58.06, 103.56 30.93, 130.63 2.26 M54.53 89.8 C70.2 72.01, 85.06 53.97, 130.63 2.26 M60.17 89.41 C84.7 59.09, 112.91 31.09, 136.28 1.86 M60.17 89.41 C79.24 67.32, 99.09 44.87, 136.28 1.86 M65.16 89.77 C86.05 64.85, 108.81 40.67, 141.26 2.22 M65.16 89.77 C82.56 68.03, 101.39 47.25, 141.26 2.22 M70.8 89.37 C97.61 56.73, 127.55 28.31, 146.25 2.58 M70.8 89.37 C88.22 69.81, 105.91 50.69, 146.25 2.58 M75.79 89.73 C103.73 59.58, 134.26 26.35, 150.58 3.7 M75.79 89.73 C99.17 63.19, 121.82 36.38, 150.58 3.7 M81.43 89.34 C99.51 65.83, 123.45 41.76, 154.91 4.81 M81.43 89.34 C97.03 71.43, 114.1 53.49, 154.91 4.81 M86.42 89.7 C109.27 61.88, 130.57 36.69, 159.9 5.17 M86.42 89.7 C103.48 69.6, 119.97 50.55, 159.9 5.17 M92.06 89.31 C108.86 66.25, 129.2 48.27, 162.26 8.55 M92.06 89.31 C113.97 64.84, 135.7 38.65, 162.26 8.55 M97.05 89.67 C114.05 68.78, 131.49 45.67, 165.28 11.18 M97.05 89.67 C114.31 68.63, 132.65 47.94, 165.28 11.18 M102.69 89.27 C126.25 62.25, 148.27 37.98, 165.02 17.57 M102.69 89.27 C116.42 73.93, 132.16 56.62, 165.02 17.57 M107.68 89.63 C123.85 72.12, 140.69 51.83, 165.41 23.22 M107.68 89.63 C124.54 70.35, 140.74 51.57, 165.41 23.22 M112.67 89.99 C130.35 72.89, 143.98 52.8, 165.15 29.61 M112.67 89.99 C130.08 71.76, 144.82 52.89, 165.15 29.61 M118.31 89.6 C131.19 75.56, 138.56 64.52, 165.55 35.26 M118.31 89.6 C137.21 68.7, 155.09 48.19, 165.55 35.26 M123.3 89.96 C136.6 74.39, 150.97 60.65, 165.29 41.66 M123.3 89.96 C135.9 75.88, 148.68 60.68, 165.29 41.66 M128.94 89.56 C143.52 75.12, 156.32 59.68, 165.68 47.3 M128.94 89.56 C138.9 76.81, 148.93 65.75, 165.68 47.3 M133.93 89.92 C144.46 80.33, 153.04 68.54, 165.42 53.7 M133.93 89.92 C146.64 75.55, 157.62 62.38, 165.42 53.7 M139.57 89.53 C148.94 80.19, 159.69 68.18, 165.81 59.34 M139.57 89.53 C147.52 79.91, 157.09 69.81, 165.81 59.34 M144.56 89.89 C152.52 82.55, 159.19 74.12, 165.55 65.74 M144.56 89.89 C151.6 81.13, 158.68 73.19, 165.55 65.74 M150.86 88.74 C158.4 79.21, 162.55 75.36, 167.92 69.12 M150.86 88.74 C154.98 83.33, 159.6 80.25, 167.92 69.12" stroke="#ffec99" stroke-width="0.5" fill="none"></path><path d="M22.27 0 M22.27 0 C51.18 1.88, 79.89 1.65, 143.26 0 M22.27 0 C68.42 -0.28, 114.8 0.58, 143.26 0 M143.26 0 C157.59 0.15, 165.08 6.15, 165.53 22.27 M143.26 0 C158.12 -1.66, 165.4 5.28, 165.53 22.27 M165.53 22.27 C164.81 40.15, 166.12 53.79, 165.53 66.82 M165.53 22.27 C165.01 34.38, 165.06 47.25, 165.53 66.82 M165.53 66.82 C167 83.55, 158.5 90.63, 143.26 89.09 M165.53 66.82 C164.98 81.65, 159.54 90.48, 143.26 89.09 M143.26 89.09 C110.55 89.88, 76.78 88.44, 22.27 89.09 M143.26 89.09 C100.15 90.19, 59.69 88.9, 22.27 89.09 M22.27 89.09 C6.26 87.11, 1.04 82.95, 0 66.82 M22.27 89.09 C5.18 88.74, -1.85 81.69, 0 66.82 M0 66.82 C-0.17 56.68, 0.96 49.57, 0 22.27 M0 66.82 C0.43 49.12, 0.17 31, 0 22.27 M0 22.27 C-0.57 5.94, 6.7 -0.15, 22.27 0 M0 22.27 C1.81 8.9, 7.09 1.83, 22.27 0" stroke="#000000" stroke-width="1" fill="none"></path></g><g transform="translate(368.20801703984847 31.54351806640625) rotate(0 51.469940185546875 25)"><text x="51.469940185546875" y="0" font-family="Virgil, Segoe UI Emoji" font-size="20px" fill="#1e1e1e" text-anchor="middle" style="white-space: pre;" direction="ltr" dominant-baseline="text-before-edge">Remove </text><text x="51.469940185546875" y="25" font-family="Virgil, Segoe UI Emoji" font-size="20px" fill="#1e1e1e" text-anchor="middle" style="white-space: pre;" direction="ltr" dominant-baseline="text-before-edge">Duplicates</text></g><g stroke-linecap="round" transform="translate(567.9135834460985 12) rotate(0 82.76437377929688 44.54351806640625)"><path d="M2.81 9.07 C2.81 9.07, 2.81 9.07, 2.81 9.07 M2.81 9.07 C2.81 9.07, 2.81 9.07, 2.81 9.07 M0.58 17.73 C3.27 11.84, 9.91 9.17, 11.08 5.66 M0.58 17.73 C4.13 14, 6.54 10.12, 11.08 5.66 M0.98 23.37 C5.86 17.69, 9.25 16.08, 18.03 3.75 M0.98 23.37 C6.74 16.17, 13.25 8.46, 18.03 3.75 M0.71 29.77 C11.22 19.56, 18.35 10.4, 24.99 1.85 M0.71 29.77 C5.77 23.24, 11.97 16.43, 24.99 1.85 M1.11 35.41 C8.54 24.97, 16.11 17.25, 29.98 2.21 M1.11 35.41 C8.48 25.56, 16.91 16.87, 29.98 2.21 M0.85 41.81 C8.23 31.75, 19.74 22.68, 35.62 1.81 M0.85 41.81 C12.69 28.73, 23.8 14.81, 35.62 1.81 M0.59 48.21 C13.26 34.74, 27.52 18.53, 40.61 2.17 M0.59 48.21 C14.78 33.86, 27.18 18.13, 40.61 2.17 M0.98 53.85 C14.03 39.74, 24.87 25.16, 46.25 1.78 M0.98 53.85 C10.94 42.69, 21.01 32.37, 46.25 1.78 M0.72 60.25 C13.23 46.56, 22.05 34.7, 51.24 2.14 M0.72 60.25 C13.04 47.24, 24.08 33.81, 51.24 2.14 M1.11 65.89 C17.82 49.04, 31.95 30.03, 56.22 2.5 M1.11 65.89 C13.26 52.74, 24.97 38.93, 56.22 2.5 M0.85 72.29 C18.51 50.76, 36.02 30.02, 61.87 2.1 M0.85 72.29 C21.23 46.23, 44.24 23.26, 61.87 2.1 M2.56 76.43 C24.68 53.45, 47.02 28.64, 66.85 2.46 M2.56 76.43 C22.3 52.72, 43.1 27.64, 66.85 2.46 M3.61 81.31 C17.72 63.96, 32.54 48.84, 72.5 2.07 M3.61 81.31 C18.92 64.08, 34.52 45.36, 72.5 2.07 M6.63 83.94 C28.63 58.51, 49.41 33.47, 77.48 2.43 M6.63 83.94 C20.94 66.4, 36.81 49.37, 77.48 2.43 M9.65 86.56 C37.02 56.5, 66.35 23.53, 83.13 2.03 M9.65 86.56 C37.6 51.78, 67.79 18.7, 83.13 2.03 M13.98 87.68 C36.52 63.55, 57.47 38.46, 88.11 2.4 M13.98 87.68 C33.95 64.91, 51.92 43.19, 88.11 2.4 M18.31 88.79 C41.75 66.92, 59.99 40.24, 93.76 2 M18.31 88.79 C43.77 60.01, 68.81 29.97, 93.76 2 M22.64 89.91 C39.45 73.72, 54.58 56.34, 98.74 2.36 M22.64 89.91 C44.37 63.78, 64.93 39.23, 98.74 2.36 M28.28 89.51 C57.55 57.98, 86.08 24.45, 104.39 1.97 M28.28 89.51 C54.33 59.43, 81.5 27.65, 104.39 1.97 M33.27 89.87 C65.12 55.31, 91.52 21.45, 109.37 2.33 M33.27 89.87 C48.63 69.37, 65.66 49.89, 109.37 2.33 M38.91 89.48 C65.1 56.22, 94.18 24.23, 115.02 1.93 M38.91 89.48 C58.37 64.03, 79.76 41.5, 115.02 1.93 M43.9 89.84 C73.84 54.04, 104.95 19.22, 120 2.29 M43.9 89.84 C65.47 67.11, 84.49 43.05, 120 2.29 M49.54 89.44 C77.58 58.53, 106.01 25.63, 125.65 1.9 M49.54 89.44 C79.47 54.63, 108.45 20.16, 125.65 1.9 M54.53 89.8 C69.35 73.58, 86.23 52.99, 130.63 2.26 M54.53 89.8 C79.08 63.32, 102.49 33.96, 130.63 2.26 M60.17 89.41 C82.06 61.37, 107.15 34.33, 136.28 1.86 M60.17 89.41 C82.72 65.61, 103 41.03, 136.28 1.86 M65.16 89.77 C80.17 74.16, 95.37 54, 141.26 2.22 M65.16 89.77 C91.34 60.94, 116.65 31.35, 141.26 2.22 M70.8 89.37 C96.13 57.57, 122.17 29.54, 146.25 2.58 M70.8 89.37 C100.79 56.23, 131.24 21.52, 146.25 2.58 M75.79 89.73 C104.43 57.23, 136.47 20.7, 150.58 3.7 M75.79 89.73 C102.14 59.55, 129.64 30.05, 150.58 3.7 M81.43 89.34 C98.1 68.72, 119.58 48.23, 154.91 4.81 M81.43 89.34 C102.03 67.52, 123.07 42.89, 154.91 4.81 M86.42 89.7 C100.26 72.13, 118.91 52.6, 159.9 5.17 M86.42 89.7 C109.43 63.12, 132.2 36.46, 159.9 5.17 M92.06 89.31 C118.95 56.25, 146.57 26.36, 162.26 8.55 M92.06 89.31 C117.15 60.9, 141.13 34.42, 162.26 8.55 M97.05 89.67 C119.59 64.51, 139.25 38.6, 165.28 11.18 M97.05 89.67 C111.51 73.12, 128.35 54.83, 165.28 11.18 M102.69 89.27 C127.26 62.33, 153.35 31.98, 165.02 17.57 M102.69 89.27 C121.62 68.48, 138.89 48.13, 165.02 17.57 M107.68 89.63 C128.84 67.46, 147.96 42.61, 165.41 23.22 M107.68 89.63 C129.68 64.71, 151.55 39.86, 165.41 23.22 M112.67 89.99 C126.94 72, 140.89 55.26, 165.15 29.61 M112.67 89.99 C128.97 71.05, 145.8 51.41, 165.15 29.61 M118.31 89.6 C126.74 75.66, 139.02 63.48, 165.55 35.26 M118.31 89.6 C134.98 70.39, 150.39 52.97, 165.55 35.26 M123.3 89.96 C136.97 75.39, 146.34 60.98, 165.29 41.66 M123.3 89.96 C133.93 77.54, 143.91 65.46, 165.29 41.66 M128.94 89.56 C138.67 79.76, 144.06 70.05, 165.68 47.3 M128.94 89.56 C142.38 74, 156.67 57.34, 165.68 47.3 M133.93 89.92 C144.65 81.23, 152.63 70.47, 165.42 53.7 M133.93 89.92 C143.23 79.4, 151.57 69.57, 165.42 53.7 M139.57 89.53 C146.42 82.15, 152.37 73.17, 165.81 59.34 M139.57 89.53 C144.35 82.33, 149.45 77.05, 165.81 59.34 M144.56 89.89 C150.83 81.14, 158.28 72.37, 165.55 65.74 M144.56 89.89 C153.4 81.1, 162.15 70.13, 165.55 65.74 M150.86 88.74 C156.33 80.2, 161.79 74.05, 167.92 69.12 M150.86 88.74 C156.01 83.28, 160.67 77.71, 167.92 69.12" stroke="#ffec99" stroke-width="0.5" fill="none"></path><path d="M22.27 0 M22.27 0 C49.78 1.17, 75.63 0.92, 143.26 0 M22.27 0 C60.48 1.16, 99.96 0.56, 143.26 0 M143.26 0 C159.08 -1.38, 163.56 5.95, 165.53 22.27 M143.26 0 C156.36 0.95, 163.64 5.85, 165.53 22.27 M165.53 22.27 C164.19 36.26, 167.47 51.16, 165.53 66.82 M165.53 22.27 C164.99 37.02, 166.06 51.9, 165.53 66.82 M165.53 66.82 C163.92 82.24, 157.39 89.18, 143.26 89.09 M165.53 66.82 C164.32 82.64, 158.01 87.44, 143.26 89.09 M143.26 89.09 C111.09 89.83, 82.59 87.61, 22.27 89.09 M143.26 89.09 C106.34 88.4, 70.64 88.4, 22.27 89.09 M22.27 89.09 C6.34 89.94, 1.45 82.09, 0 66.82 M22.27 89.09 C7.39 87.49, 0.87 82.25, 0 66.82 M0 66.82 C-0.78 54.71, 0.11 39.11, 0 22.27 M0 66.82 C-0.62 57.43, -0.39 47.3, 0 22.27 M0 22.27 C1.6 9.08, 7.95 0.9, 22.27 0 M0 22.27 C0.26 8.48, 7.43 -1.22, 22.27 0" stroke="#000000" stroke-width="1" fill="none"></path></g><g transform="translate(587.4680268054735 31.54351806640625) rotate(0 63.209930419921875 25)"><text x="63.209930419921875" y="0" font-family="Virgil, Segoe UI Emoji" font-size="20px" fill="#1e1e1e" text-anchor="middle" style="white-space: pre;" direction="ltr" dominant-baseline="text-before-edge">Filter low </text><text x="63.209930419921875" y="25" font-family="Virgil, Segoe UI Emoji" font-size="20px" fill="#1e1e1e" text-anchor="middle" style="white-space: pre;" direction="ltr" dominant-baseline="text-before-edge">degree nodes</text></g><g stroke-linecap="round" transform="translate(803.9135834460985 15) rotate(0 82.76437377929688 44.54351806640625)"><path d="M2.81 9.07 C2.81 9.07, 2.81 9.07, 2.81 9.07 M2.81 9.07 C2.81 9.07, 2.81 9.07, 2.81 9.07 M0.58 17.73 C5.41 14.02, 7.97 9.75, 11.08 5.66 M0.58 17.73 C4.66 12.68, 8.59 8.17, 11.08 5.66 M0.98 23.37 C4.16 19.7, 9.49 12.89, 18.03 3.75 M0.98 23.37 C3.82 18.85, 7.63 14.17, 18.03 3.75 M0.71 29.77 C5.53 25.34, 9.18 17.3, 24.99 1.85 M0.71 29.77 C7.21 22.36, 12.63 15.72, 24.99 1.85 M1.11 35.41 C10.43 25.86, 18.65 15.15, 29.98 2.21 M1.11 35.41 C10.83 23.5, 20.97 12.54, 29.98 2.21 M0.85 41.81 C10.37 30.09, 25.49 15.92, 35.62 1.81 M0.85 41.81 C12.3 30.26, 22.83 17.85, 35.62 1.81 M0.59 48.21 C16.08 30.76, 28.19 12.93, 40.61 2.17 M0.59 48.21 C12.75 33.98, 26.01 18.21, 40.61 2.17 M0.98 53.85 C17.69 36.41, 31.75 16.37, 46.25 1.78 M0.98 53.85 C18.16 33.65, 35.55 12.26, 46.25 1.78 M0.72 60.25 C18.89 39.89, 37.95 21.21, 51.24 2.14 M0.72 60.25 C18.23 42.05, 34.15 23.95, 51.24 2.14 M1.11 65.89 C20.78 42.35, 43.22 17.35, 56.22 2.5 M1.11 65.89 C12.3 52.98, 23.18 39.45, 56.22 2.5 M0.85 72.29 C13.11 54.71, 27.27 40.02, 61.87 2.1 M0.85 72.29 C18.54 52.63, 33.52 35.02, 61.87 2.1 M2.56 76.43 C24.2 52.86, 43.04 25.03, 66.85 2.46 M2.56 76.43 C25.25 51.76, 47.01 26.08, 66.85 2.46 M3.61 81.31 C26.44 51.26, 52.14 24.77, 72.5 2.07 M3.61 81.31 C26.86 55.68, 48.91 30.78, 72.5 2.07 M6.63 83.94 C32.15 56.27, 54.47 30.54, 77.48 2.43 M6.63 83.94 C24.52 61.99, 42.54 41.32, 77.48 2.43 M9.65 86.56 C34.47 55.15, 60.91 27, 83.13 2.03 M9.65 86.56 C35.8 56.64, 62.25 27.11, 83.13 2.03 M13.98 87.68 C38.94 56.23, 69.24 27.47, 88.11 2.4 M13.98 87.68 C36.2 61.9, 58.95 35.4, 88.11 2.4 M18.31 88.79 C38.45 65.17, 56.06 47.36, 93.76 2 M18.31 88.79 C42.69 62.23, 65.65 37.16, 93.76 2 M22.64 89.91 C51.42 55.22, 80.78 18.89, 98.74 2.36 M22.64 89.91 C48.79 61.82, 72.38 33.2, 98.74 2.36 M28.28 89.51 C48.85 66.94, 63.89 47.92, 104.39 1.97 M28.28 89.51 C58.04 55.39, 88.33 21.14, 104.39 1.97 M33.27 89.87 C49.81 70.73, 64.98 52.01, 109.37 2.33 M33.27 89.87 C51.86 69.73, 67.96 50.67, 109.37 2.33 M38.91 89.48 C54.63 72.74, 68.43 54.49, 115.02 1.93 M38.91 89.48 C63.27 60.77, 89.15 34.07, 115.02 1.93 M43.9 89.84 C62.46 71.55, 78.1 53.88, 120 2.29 M43.9 89.84 C60.34 72.96, 74.65 55.34, 120 2.29 M49.54 89.44 C65.51 72.83, 82.8 52.05, 125.65 1.9 M49.54 89.44 C71.09 66.24, 92.73 40.26, 125.65 1.9 M54.53 89.8 C77.43 68.11, 95.12 40.93, 130.63 2.26 M54.53 89.8 C79.72 61.92, 104.35 32.8, 130.63 2.26 M60.17 89.41 C86.56 58.91, 112.73 29.61, 136.28 1.86 M60.17 89.41 C84.87 60.22, 111.12 31.18, 136.28 1.86 M65.16 89.77 C79.37 72.49, 97.04 53.59, 141.26 2.22 M65.16 89.77 C92.81 57.07, 120.01 24.69, 141.26 2.22 M70.8 89.37 C98.02 62.65, 121.9 33.74, 146.25 2.58 M70.8 89.37 C88.11 70.42, 104.13 49.7, 146.25 2.58 M75.79 89.73 C98.56 63.29, 121.97 38.59, 150.58 3.7 M75.79 89.73 C102.12 59.55, 127.24 31.16, 150.58 3.7 M81.43 89.34 C103.3 65.08, 125.13 39.58, 154.91 4.81 M81.43 89.34 C109.24 56.13, 137.87 23.07, 154.91 4.81 M86.42 89.7 C103.42 70.59, 118.87 47.98, 159.9 5.17 M86.42 89.7 C114.38 57.59, 142.83 25.48, 159.9 5.17 M92.06 89.31 C116.84 58.89, 145.26 28.84, 162.26 8.55 M92.06 89.31 C114.58 61.35, 137.68 34.29, 162.26 8.55 M97.05 89.67 C119.32 62.44, 142.29 36.37, 165.28 11.18 M97.05 89.67 C117.61 65.28, 137.66 43.76, 165.28 11.18 M102.69 89.27 C124.31 65.77, 143.74 41.1, 165.02 17.57 M102.69 89.27 C118.65 71.32, 133.85 53.2, 165.02 17.57 M107.68 89.63 C123.9 69.92, 141.52 49.21, 165.41 23.22 M107.68 89.63 C128.89 65.6, 148.84 42.51, 165.41 23.22 M112.67 89.99 C130.66 65.65, 152.55 46.27, 165.15 29.61 M112.67 89.99 C123.4 77.28, 134.04 66.93, 165.15 29.61 M118.31 89.6 C133.74 75.33, 144.75 58.41, 165.55 35.26 M118.31 89.6 C132.28 72.35, 147.32 55.25, 165.55 35.26 M123.3 89.96 C134.9 77.15, 146.41 59.76, 165.29 41.66 M123.3 89.96 C138.72 73.09, 153.5 55.62, 165.29 41.66 M128.94 89.56 C140.38 77.01, 149.14 67.99, 165.68 47.3 M128.94 89.56 C137.1 80.47, 145.53 69.6, 165.68 47.3 M133.93 89.92 C141.59 78.78, 154.64 68.62, 165.42 53.7 M133.93 89.92 C143.76 77.18, 155.49 64.7, 165.42 53.7 M139.57 89.53 C145.34 81.95, 151.85 76.3, 165.81 59.34 M139.57 89.53 C144.99 81.92, 152.53 75.91, 165.81 59.34 M144.56 89.89 C149.59 82.73, 155.33 77.83, 165.55 65.74 M144.56 89.89 C151.08 83.49, 156.01 76.07, 165.55 65.74 M150.86 88.74 C157.14 81.79, 161.68 77.03, 167.92 69.12 M150.86 88.74 C155.6 83.14, 160.64 76.73, 167.92 69.12" stroke="#a5d8ff" stroke-width="0.5" fill="none"></path><path d="M22.27 0 M22.27 0 C52.17 -0.44, 79.66 -0.74, 143.26 0 M22.27 0 C64.6 1.53, 106.56 -0.06, 143.26 0 M143.26 0 C157.03 1.67, 165.79 6.54, 165.53 22.27 M143.26 0 C160.17 -0.39, 163.49 9.02, 165.53 22.27 M165.53 22.27 C165.53 37.41, 163.99 55.3, 165.53 66.82 M165.53 22.27 C164.98 32.9, 165.27 43.13, 165.53 66.82 M165.53 66.82 C164.37 80.07, 159.28 87.41, 143.26 89.09 M165.53 66.82 C165.1 81.08, 160.02 89.51, 143.26 89.09 M143.26 89.09 C107.94 86.89, 75.03 86.99, 22.27 89.09 M143.26 89.09 C108.72 88.75, 73.38 88.34, 22.27 89.09 M22.27 89.09 C7.75 89.27, -0.7 81.44, 0 66.82 M22.27 89.09 C8.48 89.75, -1.56 81.82, 0 66.82 M0 66.82 C-0.13 54.47, -1.13 44.96, 0 22.27 M0 66.82 C-0.09 53.93, 0.81 40.21, 0 22.27 M0 22.27 C0.05 7.87, 7.95 -0.14, 22.27 0 M0 22.27 C-1.74 7.95, 5.88 1.94, 22.27 0" stroke="#000000" stroke-width="1" fill="none"></path></g><g transform="translate(810.6980377918017 34.54351806640625) rotate(0 75.97991943359375 25)"><text x="75.97991943359375" y="0" font-family="Virgil, Segoe UI Emoji" font-size="20px" fill="#1e1e1e" text-anchor="middle" style="white-space: pre;" direction="ltr" dominant-baseline="text-before-edge">Compute </text><text x="75.97991943359375" y="25" font-family="Virgil, Segoe UI Emoji" font-size="20px" fill="#1e1e1e" text-anchor="middle" style="white-space: pre;" direction="ltr" dominant-baseline="text-before-edge">network metrics</text></g><g stroke-linecap="round"><g transform="translate(259.67795722539535 53.54351806640625) rotate(0 37.67479470819234 -0.2854131100653774)"><path d="M-0.78 1.09 C11.82 0.76, 63.35 -1.31, 76.13 -1.66 M1.02 0.62 C13.4 0.42, 62.81 -0.37, 75.12 -0.42" stroke="#1e1e1e" stroke-width="1" fill="none"></path></g><g transform="translate(259.67795722539535 53.54351806640625) rotate(0 37.67479470819234 -0.2854131100653774)"><path d="M48.86 9.97 C55.76 6.06, 66.49 3.67, 74.45 -0.74 M47.16 10.58 C57.46 7.44, 66.5 3.06, 74.57 -1.1" stroke="#1e1e1e" stroke-width="1" fill="none"></path></g><g transform="translate(259.67795722539535 53.54351806640625) rotate(0 37.67479470819234 -0.2854131100653774)"><path d="M48.63 -10.55 C55.67 -7.37, 66.47 -2.68, 74.45 -0.74 M46.93 -9.94 C57.13 -5.87, 66.24 -3.05, 74.57 -1.1" stroke="#1e1e1e" stroke-width="1" fill="none"></path></g></g><mask></mask><g stroke-linecap="round"><g transform="translate(501.67795722539535 51.54351806640625) rotate(0 31.784986742944454 0.4721180044821267)"><path d="M-0.6 -1.01 C9.73 -0.86, 51.5 0.02, 61.99 0.33 M1.29 1.07 C11.98 1.48, 54.18 2.23, 64.17 1.86" stroke="#1e1e1e" stroke-width="1" fill="none"></path></g><g transform="translate(501.67795722539535 51.54351806640625) rotate(0 31.784986742944454 0.4721180044821267)"><path d="M34.33 10.56 C44.52 8.16, 53.9 4.88, 64.48 1.97 M36.63 13.18 C45.45 9.58, 55.42 4.28, 64.61 1.91" stroke="#1e1e1e" stroke-width="1" fill="none"></path></g><g transform="translate(501.67795722539535 51.54351806640625) rotate(0 31.784986742944454 0.4721180044821267)"><path d="M34.24 -9.96 C44.35 -6.18, 53.76 -3.28, 64.48 1.97 M36.54 -7.34 C45.46 -4.07, 55.47 -2.49, 64.61 1.91" stroke="#1e1e1e" stroke-width="1" fill="none"></path></g></g><mask></mask><g stroke-linecap="round"><g transform="translate(737.6779572253954 55.16699030976679) rotate(0 31.579125675768523 0.6666631755075514)"><path d="M-0.83 -0.32 C9.3 -0.17, 51.19 1.27, 61.87 1.82 M0.93 -1.54 C11.32 -1.35, 53.7 1.88, 63.99 2.87" stroke="#1e1e1e" stroke-width="1" fill="none"></path></g><g transform="translate(737.6779572253954 55.16699030976679) rotate(0 31.579125675768523 0.6666631755075514)"><path d="M34.5 8.86 C44.73 8.33, 57.96 5.35, 63.78 2.2 M34.23 10.71 C44.31 8.19, 54.21 6.23, 64.94 3.44" stroke="#1e1e1e" stroke-width="1" fill="none"></path></g><g transform="translate(737.6779572253954 55.16699030976679) rotate(0 31.579125675768523 0.6666631755075514)"><path d="M36.21 -11.59 C45.93 -4.16, 58.49 0.83, 63.78 2.2 M35.95 -9.74 C45.38 -5.7, 54.72 -1.11, 64.94 3.44" stroke="#1e1e1e" stroke-width="1" fill="none"></path></g></g><mask></mask><g stroke-linecap="round"><g transform="translate(973.6779572253954 57.54351806640625) rotate(0 29.366125957542067 0.7160965146636613)"><path d="M0.41 0.16 C10.3 0.36, 49.47 2, 59.56 2.23 M-0.83 -0.8 C8.85 -0.47, 48.12 -0.34, 58.39 0.23" stroke="#1e1e1e" stroke-width="1" fill="none"></path></g><g transform="translate(973.6779572253954 57.54351806640625) rotate(0 29.366125957542067 0.7160965146636613)"><path d="M30.21 9.02 C39.27 8.29, 47.13 3.88, 60.01 -0.67 M29.89 9.84 C37.23 6.78, 46.12 4.81, 57.99 0.2" stroke="#1e1e1e" stroke-width="1" fill="none"></path></g><g transform="translate(973.6779572253954 57.54351806640625) rotate(0 29.366125957542067 0.7160965146636613)"><path d="M30.75 -11.5 C39.82 -5.7, 47.5 -3.6, 60.01 -0.67 M30.43 -10.67 C37.47 -8.05, 46.21 -4.34, 57.99 0.2" stroke="#1e1e1e" stroke-width="1" fill="none"></path></g></g><mask></mask><g stroke-linecap="round"><g transform="translate(11.677957225395346 51.54351806640625) rotate(0 38.693691818886435 -1.3035932636566088)"><path d="M-0.14 0.11 C12.94 0, 65.85 -0.5, 79.07 -0.73 M-1.68 -0.87 C11.3 -1.36, 65.24 -2.84, 78.68 -2.71" stroke="#1e1e1e" stroke-width="1" fill="none"></path></g><g transform="translate(11.677957225395346 51.54351806640625) rotate(0 38.693691818886435 -1.3035932636566088)"><path d="M50.8 9.66 C60.76 6.15, 69.54 2.23, 78.98 -0.8 M51.03 7 C60.74 4.91, 70.72 1.64, 78.33 -2.73" stroke="#1e1e1e" stroke-width="1" fill="none"></path></g><g transform="translate(11.677957225395346 51.54351806640625) rotate(0 38.693691818886435 -1.3035932636566088)"><path d="M50.55 -10.86 C60.59 -7.28, 69.45 -4.1, 78.98 -0.8 M50.78 -13.51 C60.54 -8.5, 70.61 -4.66, 78.33 -2.73" stroke="#1e1e1e" stroke-width="1" fill="none"></path></g></g><mask></mask></svg>